<svg xmlns="http://www.w3.org/2000/svg" fill="currentColor" aria-label="A chubby jigsaw puzzle" viewBox="-0.0 -21.5 226.0 226.0"><g transform="translate(0.000000,183.000000) scale(0.100000,-0.100000)"><path d="M525 1650 c-77 -3 -157 -13 -178 -20 -57 -20 -121 -82 -148 -142
l-24 -53 0 -550 0 -550 31 -49 c19 -32 48 -61 80 -80 l49 -31 770 0 770 0 56
23 c67 28 99 59 131 127 l23 50 0 550 0 550 -24 47 c-24 50 -75 101 -120 121
-29 13 -1160 19 -1416 7z m513 -96 c21 -6 22 -12 22 -94 0 -87 1 -89 34 -124
38 -41 70 -46 131 -20 51 21 82 8 90 -40 9 -44 -1 -73 -29 -91 -20 -13 -26
-13 -61 5 -47 24 -67 25 -106 4 -43 -22 -59 -68 -59 -167 l0 -84 -96 -6 c-53
-4 -100 -4 -105 -1 -5 3 -5 13 1 24 25 47 -4 119 -63 158 -35 23 -50 27 -116
26 -80 -1 -120 -15 -156 -54 -16 -17 -20 -36 -20 -86 0 -53 -3 -65 -18 -70
-17 -5 -108 1 -191 13 l-39 5 7 187 c6 193 21 292 51 337 9 14 38 35 63 47 43
20 69 22 332 27 157 4 290 7 295 8 6 1 20 -1 33 -4z m812 -4 c88 -20 106 -39
126 -135 16 -71 30 -365 20 -416 l-6 -36 -143 1 c-155 1 -183 -6 -221 -57 -20
-27 -20 -28 -1 -83 l19 -56 -23 -19 c-29 -24 -107 -25 -139 -3 -25 18 -29 46
-7 64 8 7 15 29 15 50 0 31 -7 44 -34 68 l-34 30 -130 -3 -130 -3 -5 50 c-5
42 0 108 8 108 1 0 19 -7 38 -15 76 -32 149 -7 191 65 42 71 19 196 -45 243
-37 27 -108 33 -147 13 -39 -20 -39 -20 -46 7 -10 39 5 126 23 130 34 9 628 6
671 -3z m-1102 -517 c18 -11 22 -20 17 -36 -3 -12 -9 -42 -12 -67 -4 -38 -1
-48 17 -65 20 -18 36 -20 165 -20 l143 0 5 -63 c4 -34 2 -74 -3 -88 -9 -24
-11 -24 -39 -9 -65 33 -140 7 -188 -64 -17 -25 -23 -48 -23 -88 0 -63 17 -100
61 -138 29 -24 39 -26 88 -22 31 2 66 8 79 12 23 7 23 6 20 -56 l-3 -64 -295
1 c-321 0 -413 10 -458 49 -44 38 -54 91 -59 321 l-5 210 144 -4 144 -4 33 27
c30 26 32 32 27 69 -13 89 -13 90 24 109 38 19 78 16 118 -10z m1190 -159 l52
-7 0 -160 c0 -88 -5 -201 -12 -250 -10 -84 -14 -93 -48 -127 -33 -33 -44 -37
-121 -48 -46 -6 -209 -14 -361 -18 l-278 -7 0 85 c0 70 -4 90 -20 111 -26 33
-75 41 -130 22 -38 -13 -46 -14 -66 0 -66 43 -14 153 54 116 12 -6 41 -11 65
-11 38 0 49 5 71 31 24 29 26 37 26 138 l0 108 90 7 c103 9 135 3 124 -22 -4
-10 -9 -37 -11 -62 -8 -92 59 -145 182 -144 53 0 80 5 105 20 71 41 98 119 65
184 -15 28 -14 29 13 33 46 7 144 7 200 1z"/></g></svg>