<svg xmlns="http://www.w3.org/2000/svg" fill="currentColor" aria-label="A playground swing" viewBox="-0.0 -21.0 228.0 228.0"><g transform="translate(0.000000,186.000000) scale(0.100000,-0.100000)"><path d="M730 1680 c-107 -4 -210 -12 -229 -19 -39 -12 -86 -53 -107 -93 -18
-35 -18 -121 0 -156 17 -32 12 -70 -31 -232 -53 -199 -153 -631 -178 -767 -25
-134 -11 -184 65 -223 53 -27 147 -27 199 0 21 10 48 34 59 53 20 35 62 195
62 238 0 13 15 98 34 189 63 303 98 485 103 535 10 105 16 120 51 123 l32 3 0
-259 0 -260 -35 -21 c-63 -37 -90 -132 -64 -225 15 -56 90 -131 153 -154 145
-54 483 -48 601 10 104 52 157 152 140 263 -7 48 -54 115 -81 115 -12 0 -14
45 -14 265 l0 265 29 0 c17 0 33 -4 36 -10 3 -5 10 -47 15 -92 10 -84 46 -295
102 -583 17 -88 34 -185 38 -215 19 -136 50 -202 114 -241 45 -27 168 -27 214
1 92 57 94 139 6 496 -19 77 -34 148 -34 159 0 10 -13 68 -29 129 -17 61 -46
179 -66 261 -35 144 -35 152 -21 187 43 103 -5 213 -109 248 -47 16 -723 22
-1055 10z m1002 -112 c78 -23 91 -99 20 -117 -59 -15 -1212 -19 -1238 -4 -42
24 -33 77 19 105 38 21 149 25 661 27 360 1 510 -2 538 -11z m-1127 -292 c-4
-28 -9 -64 -10 -81 -2 -28 -26 -150 -46 -240 -5 -22 -14 -70 -19 -106 -8 -60
-26 -145 -50 -239 -5 -19 -14 -72 -20 -118 -17 -125 -41 -194 -72 -209 -33
-16 -86 -6 -99 19 -7 12 -6 37 2 76 6 31 15 80 20 107 8 45 27 127 91 385 11
47 29 123 38 170 15 69 58 238 74 285 2 6 24 9 51 7 l47 -4 -7 -52z m1204 -73
c18 -76 46 -190 61 -253 79 -320 137 -603 132 -637 -5 -31 -60 -48 -106 -33
-49 16 -51 23 -110 345 -85 462 -99 542 -101 575 -1 19 -5 54 -9 77 -4 23 -5
47 -1 53 3 5 28 10 54 10 l47 0 33 -137z m-429 -141 l0 -268 -33 -36 c-38 -42
-97 -58 -212 -58 -105 0 -173 17 -207 50 l-28 28 0 276 0 276 240 0 240 0 0
-268z m-529 -388 c55 -59 90 -68 265 -72 192 -4 232 4 288 59 42 43 62 44 72
4 13 -53 -21 -112 -86 -145 -103 -53 -419 -48 -522 7 -66 36 -95 102 -68 154
14 25 22 24 51 -7z"/></g></svg>